<svg width="341" height="68" viewBox="0 0 341 68" fill="none" xmlns="http://www.w3.org/2000/svg">
<path d="M36.2296 67.0811V0H50.7557V67.0811H36.2296ZM0 67.0811V0H14.526V67.0811H0ZM7.26302 39.1459V25.6378H43.4927V39.1459H7.26302Z" fill="#B28E7F"/>
<path d="M72.6702 68C68.3979 68 65.0085 66.6829 62.502 64.0487C59.9955 61.4144 58.7423 57.8613 58.7423 53.3892C58.7423 47.9982 60.7076 43.8324 64.6382 40.8919C68.6257 37.9514 74.2368 36.4811 81.4713 36.4811H86.6836C86.6836 33.9694 86.057 32.2234 84.8037 31.2432C83.6075 30.2018 81.4998 29.6811 78.4806 29.6811C75.7463 29.6811 73.012 30.0487 70.2777 30.7838C67.6004 31.5189 64.923 32.6216 62.2457 34.0919L60.6222 22.6973C63.6413 21.227 66.7174 20.155 69.8505 19.4811C73.0405 18.7459 76.5723 18.3784 80.4459 18.3784C85.4588 18.3784 89.4464 18.991 92.4086 20.2162C95.4277 21.3802 97.5924 23.3405 98.9025 26.0973C100.213 28.7928 100.868 32.3766 100.868 36.8487V67.0811H87.3672L87.1963 61.5676H87.0254C85.4304 63.5279 83.3227 65.0901 80.7023 66.2541C78.1389 67.418 75.4615 68 72.6702 68ZM78.0534 57.0649C79.7054 57.0649 81.1865 56.7586 82.4967 56.146C83.8068 55.5333 84.8322 54.7063 85.5728 53.6649C86.3133 52.5622 86.6836 51.3369 86.6836 49.9892V45.4865H83.6075C79.6199 45.4865 76.6578 46.0072 74.721 47.0486C72.7842 48.0288 71.8158 49.6216 71.8158 51.827C71.8158 53.4811 72.3569 54.7676 73.4393 55.6865C74.5216 56.6054 76.0596 57.0649 78.0534 57.0649Z" fill="#B28E7F"/>
<path d="M126.276 68C122.972 68 119.725 67.6937 116.535 67.0811C113.402 66.4072 110.583 65.4577 108.076 64.2324L109.7 52.9297C112.605 54.155 115.453 55.1045 118.244 55.7784C121.093 56.391 123.713 56.6973 126.105 56.6973C128.213 56.6973 129.723 56.391 130.634 55.7784C131.546 55.1658 132.001 54.2162 132.001 52.9297C132.001 52.1946 131.83 51.582 131.489 51.0919C131.147 50.6018 130.52 50.173 129.609 49.8054C128.754 49.4378 127.473 49.0396 125.764 48.6108C121.548 47.5081 118.13 46.2216 115.51 44.7514C112.89 43.2811 110.953 41.5658 109.7 39.6054C108.446 37.5838 107.82 35.2252 107.82 32.5297C107.82 27.8739 109.5 24.3513 112.861 21.9622C116.222 19.573 121.15 18.3784 127.644 18.3784C130.663 18.3784 133.596 18.6541 136.445 19.2054C139.293 19.7568 142.17 20.645 145.075 21.8703L143.451 33.173C140.66 32.009 137.983 31.1514 135.419 30.6C132.856 29.9874 130.435 29.6811 128.156 29.6811C126.162 29.6811 124.681 29.9568 123.713 30.5081C122.802 30.9982 122.346 31.8252 122.346 32.9892C122.346 33.6631 122.545 34.2757 122.944 34.827C123.343 35.3171 123.998 35.7459 124.909 36.1135C125.821 36.4811 127.045 36.8793 128.583 37.3081C131.66 38.0432 134.337 38.9315 136.615 39.973C138.894 41.0144 140.745 42.1784 142.17 43.4649C143.651 44.7514 144.733 46.2216 145.417 47.8757C146.157 49.5297 146.527 51.3369 146.527 53.2973C146.527 57.9532 144.733 61.5676 141.144 64.1405C137.612 66.7135 132.656 68 126.276 68Z" fill="#B28E7F"/>
<path d="M170.001 68C166.697 68 163.45 67.6937 160.26 67.0811C157.127 66.4072 154.308 65.4577 151.801 64.2324L153.425 52.9297C156.33 54.155 159.178 55.1045 161.969 55.7784C164.818 56.391 167.438 56.6973 169.83 56.6973C171.938 56.6973 173.448 56.391 174.359 55.7784C175.271 55.1658 175.726 54.2162 175.726 52.9297C175.726 52.1946 175.555 51.582 175.214 51.0919C174.872 50.6018 174.245 50.173 173.334 49.8054C172.479 49.4378 171.198 49.0396 169.489 48.6108C165.273 47.5081 161.855 46.2216 159.235 44.7514C156.615 43.2811 154.678 41.5658 153.425 39.6054C152.171 37.5838 151.545 35.2252 151.545 32.5297C151.545 27.8739 153.225 24.3513 156.586 21.9622C159.947 19.573 164.874 18.3784 171.368 18.3784C174.388 18.3784 177.321 18.6541 180.17 19.2054C183.018 19.7568 185.895 20.645 188.8 21.8703L187.176 33.173C184.385 32.009 181.708 31.1514 179.144 30.6C176.581 29.9874 174.16 29.6811 171.881 29.6811C169.887 29.6811 168.406 29.9568 167.438 30.5081C166.526 30.9982 166.071 31.8252 166.071 32.9892C166.071 33.6631 166.27 34.2757 166.669 34.827C167.068 35.3171 167.723 35.7459 168.634 36.1135C169.546 36.4811 170.77 36.8793 172.308 37.3081C175.385 38.0432 178.062 38.9315 180.34 39.973C182.619 41.0144 184.47 42.1784 185.895 43.4649C187.376 44.7514 188.458 46.2216 189.142 47.8757C189.882 49.5297 190.252 51.3369 190.252 53.2973C190.252 57.9532 188.458 61.5676 184.869 64.1405C181.337 66.7135 176.381 68 170.001 68Z" fill="#B28E7F"/>
<path d="M209.186 68C204.913 68 201.524 66.6829 199.017 64.0487C196.511 61.4144 195.258 57.8613 195.258 53.3892C195.258 47.9982 197.223 43.8324 201.154 40.8919C205.141 37.9514 210.752 36.4811 217.987 36.4811H223.199C223.199 33.9694 222.572 32.2234 221.319 31.2432C220.123 30.2018 218.015 29.6811 214.996 29.6811C212.262 29.6811 209.527 30.0487 206.793 30.7838C204.116 31.5189 201.438 32.6216 198.761 34.0919L197.138 22.6973C200.157 21.227 203.233 20.155 206.366 19.4811C209.556 18.7459 213.088 18.3784 216.961 18.3784C221.974 18.3784 225.962 18.991 228.924 20.2162C231.943 21.3802 234.108 23.3405 235.418 26.0973C236.728 28.7928 237.383 32.3766 237.383 36.8487V67.0811H223.883L223.712 61.5676H223.541C221.946 63.5279 219.838 65.0901 217.218 66.2541C214.654 67.418 211.977 68 209.186 68ZM214.569 57.0649C216.221 57.0649 217.702 56.7586 219.012 56.146C220.322 55.5333 221.348 54.7063 222.088 53.6649C222.829 52.5622 223.199 51.3369 223.199 49.9892V45.4865H220.123C216.135 45.4865 213.173 46.0072 211.236 47.0486C209.3 48.0288 208.331 49.6216 208.331 51.827C208.331 53.4811 208.872 54.7676 209.955 55.6865C211.037 56.6054 212.575 57.0649 214.569 57.0649Z" fill="#B28E7F"/>
<path d="M246.984 67.0811V0H261.254V37.7676H261.425L275.438 19.2973H292.186L273.302 42.2703L292.784 67.0811H276.036L261.425 46.6811H261.254V67.0811H246.984Z" fill="#B28E7F"/>
<path d="M313.059 68C307.875 68 304.115 66.3459 301.78 63.0378C299.444 59.6685 298.276 54.2775 298.276 46.8649V19.2973H312.546V43.8324C312.546 47.8757 313.03 50.8162 313.999 52.6541C314.967 54.4919 316.448 55.4108 318.442 55.4108C319.98 55.4108 321.376 54.982 322.629 54.1243C323.882 53.2667 324.879 52.1333 325.62 50.7243C326.417 49.2541 326.816 47.6613 326.816 45.9459V19.2973H341V67.0811H327.499L327.328 60.6486H327.158C325.221 63.2216 323.142 65.0901 320.92 66.2541C318.755 67.418 316.135 68 313.059 68Z" fill="#B28E7F"/>
</svg>
